<svg xmlns="http://www.w3.org/2000/svg" width="120" height="120" viewBox="0 0 120 120">
  <g fill="none" fill-rule="evenodd">
    <path fill="#3E4B4B" d="M20.9743161,105.575513 C8.13518623,94.5712451 0,78.2356598 0,60 C0,26.862915 26.862915,0 60,0 C93.137085,0 120,26.862915 120,60 C120,77.9115549 112.15142,93.9899755 99.7057819,104.983739 C95.4299934,97.2941033 85.6037296,91.5443344 77.2860951,90.0014 L75.8457962,89.7319 C71.180971,88.8445288 67.8092055,84.7459021 67.824064,79.9809 L67.824064,78.1189 C77.5985667,73.0523 85.9132411,62.3115 86.7627733,50.0468 C88.09566,30.927 79.4245727,20 60.5346871,20 C41.6399191,20 32.9200081,30.9221 34.2431301,50.0468 C35.1024271,62.3115 43.3926896,73.0523 53.1671923,78.1189 L53.1671923,79.9809 C53.1671923,84.7633 49.7983577,88.8695 45.1552248,89.7319 L43.7100436,90.0014 C35.1803899,91.5836643 25.064216,97.5899635 20.9743195,105.575516 Z"/>
    <path fill="#F9F9F9" d="M20.9743195,105.575516 C25.064216,97.5899635 35.1803899,91.5836643 43.7100436,90.0014 L45.1552248,89.7319 C49.7983577,88.8695 53.1671923,84.7633 53.1671923,79.9809 L53.1671923,78.1189 C43.3926896,73.0523 35.1024271,62.3115 34.2431301,50.0468 C32.9200081,30.9221 41.6399191,20 60.5346871,20 C79.4245727,20 88.09566,30.927 86.7627733,50.0468 C85.9132411,62.3115 77.5985667,73.0523 67.824064,78.1189 L67.824064,79.9809 C67.8092055,84.7459021 71.180971,88.8445288 75.8457962,89.7319 L77.2860951,90.0014 C85.6037296,91.5443344 95.4299934,97.2941033 99.7057819,104.983739 C89.1264976,114.328873 75.2255301,120 60,120 C45.0985748,120 31.4659208,114.567745 20.9743161,105.575513 Z"/>
  </g>
</svg>
